<?xml version="1.0" standalone="no"?>
<!DOCTYPE svg PUBLIC "-//W3C//DTD SVG 20010904//EN"
 "http://www.w3.org/TR/2001/REC-SVG-20010904/DTD/svg10.dtd">
<svg version="1.0" xmlns="http://www.w3.org/2000/svg"
 width="216.000000pt" height="303.000000pt" viewBox="0 0 216.000000 303.000000"
 preserveAspectRatio="xMidYMid meet">

<g transform="translate(0.000000,303.000000) scale(0.100000,-0.100000)"
fill="#000000" stroke="none">
<path d="M888 2933 c7 -3 16 -2 19 1 4 3 -2 6 -13 5 -11 0 -14 -3 -6 -6z"/>
<path d="M1260 2930 c190 -3 346 -7 348 -8 1 -1 2 -99 2 -217 0 -165 3 -215
13 -217 39 -4 -185 -16 -338 -17 l-180 -2 -64 -112 c-233 -405 -321 -550 -329
-542 -3 3 -1 10 5 16 8 8 8 21 1 43 -5 17 -12 49 -14 71 -3 22 -7 47 -10 55
-3 8 -7 46 -10 85 -3 38 -9 86 -14 105 -4 19 -8 42 -9 50 -1 23 -20 178 -30
240 l-8 55 67 120 c81 146 95 173 83 160 -6 -5 -36 -55 -68 -110 -673 -1178
-676 -1184 -664 -1207 17 -34 705 -1241 753 -1323 l41 -70 510 -2 510 -3 60
106 c137 243 195 350 195 362 0 8 -119 223 -265 478 -146 255 -265 466 -265
469 0 7 156 284 379 674 83 145 151 272 151 281 0 20 -196 427 -218 453 -14
16 -49 17 -496 15 l-481 -2 345 -6z m318 -1443 c6 -17 9 -34 5 -40 -3 -6 -1
-7 5 -3 6 3 14 1 17 -4 8 -13 7 -829 -1 -842 -3 -4 3 -8 12 -8 10 0 14 -3 10
-7 -4 -5 -123 -10 -264 -13 l-257 -5 -60 -100 c-101 -169 -126 -207 -131 -202
-3 3 0 14 8 26 10 16 10 23 0 33 -6 6 -12 31 -12 54 0 24 -5 77 -11 120 -6 42
-11 86 -11 98 0 12 -4 35 -9 51 -12 47 -40 264 -41 327 -1 15 -5 25 -9 22 -5
-3 -9 2 -9 11 0 9 5 13 10 10 11 -7 4 7 -150 285 -56 102 -106 189 -111 195
-5 5 -9 13 -9 18 0 5 222 7 503 6 l504 -2 11 -30z"/>
<path d="M805 2880 c-14 -27 -23 -50 -20 -50 2 0 16 23 30 50 14 28 23 50 20
50 -2 0 -16 -22 -30 -50z"/>
</g>
</svg>
