<?xml version="1.0" standalone="no"?>
<!DOCTYPE svg PUBLIC "-//W3C//DTD SVG 20010904//EN"
 "http://www.w3.org/TR/2001/REC-SVG-20010904/DTD/svg10.dtd">
<svg version="1.0" xmlns="http://www.w3.org/2000/svg"
 width="303.000000pt" height="277.000000pt" viewBox="0 0 303.000000 277.000000"
 preserveAspectRatio="xMidYMid meet">

<g transform="translate(0.000000,277.000000) scale(0.100000,-0.100000)"
fill="#000000" stroke="none">
<path d="M1260 2594 c-140 -80 -361 -206 -490 -279 -129 -74 -332 -189 -450
-257 l-215 -123 -2 -510 -3 -510 106 -60 c243 -138 350 -195 363 -195 7 0 124
64 260 141 135 78 260 150 276 159 215 123 372 214 379 221 19 17 45 9 128
-40 282 -166 845 -481 860 -481 17 0 431 202 456 222 9 8 12 67 10 242 -1 127
-3 197 -5 156 -5 -133 20 -120 -228 -120 -165 0 -215 -3 -217 -12 -4 -40 -16
184 -17 337 l-2 180 -112 64 c-405 233 -550 321 -542 329 3 3 10 1 16 -5 8 -8
21 -8 43 -1 17 5 49 12 71 14 22 3 47 7 55 10 8 3 46 7 85 10 38 3 86 9 105
14 19 4 42 8 50 9 24 1 180 21 240 30 52 8 59 7 120 -27 36 -19 61 -30 55 -24
-10 10 -1104 638 -1128 648 -7 2 -127 -62 -267 -142z m259 -886 l-2 -503 -47
-23 -47 -24 -408 1 c-225 1 -412 4 -417 7 -4 3 -8 -3 -8 -12 0 -10 -3 -14 -8
-10 -4 4 -9 123 -12 264 l-5 257 -100 60 c-169 101 -207 126 -202 131 3 3 14
0 26 -8 16 -10 23 -10 33 0 6 6 31 12 54 12 24 0 77 5 120 11 42 6 86 11 98
11 12 0 35 4 51 9 47 12 264 40 327 41 15 1 25 5 22 9 -3 5 2 9 11 9 9 0 13
-5 10 -10 -7 -11 7 -4 285 150 102 56 189 106 195 111 5 5 13 9 18 9 5 0 7
-221 6 -502z"/>
<path d="M1608 427 c-27 -16 -35 -26 -28 -36 12 -21 104 14 96 36 -3 8 -6 17
-6 19 0 10 -28 2 -62 -19z"/>
<path d="M1951 436 c-21 -26 -9 -51 24 -51 27 0 30 3 30 30 0 23 -5 31 -21 33
-11 2 -26 -4 -33 -12z"/>
<path d="M302 263 c-23 -76 -42 -142 -42 -146 0 -5 14 -7 32 -5 25 2 34 9 38
28 5 22 12 25 52 28 44 3 46 2 53 -27 6 -27 11 -31 41 -31 19 0 34 2 34 5 0
10 -80 267 -86 276 -3 5 -22 9 -43 9 l-38 0 -41 -137z m97 30 c18 -63 15 -73
-20 -73 -24 0 -29 4 -25 18 3 9 8 34 12 55 3 20 10 37 15 37 4 0 13 -17 18
-37z"/>
<path d="M540 345 c0 -47 3 -55 19 -55 19 0 31 34 31 86 0 19 -5 24 -25 24
-24 0 -25 -3 -25 -55z"/>
<path d="M640 255 l0 -145 30 0 30 0 0 103 1 102 38 -100 38 -100 41 -3 42 -3
0 145 0 146 -25 0 -25 0 0 -102 c-1 -94 -2 -101 -15 -78 -8 14 -26 60 -41 103
l-27 77 -44 0 -43 0 0 -145z"/>
<path d="M1258 324 c-18 -9 -28 -11 -28 -4 0 6 -12 10 -27 8 l-28 -3 0 -105 0
-105 30 0 30 0 5 85 c4 73 8 85 24 88 28 6 36 -15 36 -100 l0 -78 30 0 29 0 3
81 c2 66 7 84 21 93 27 17 37 -8 37 -96 l0 -78 30 0 30 0 0 95 c0 82 -3 98
-20 115 -24 24 -48 25 -78 4 -20 -14 -24 -14 -44 0 -28 20 -45 20 -80 0z"/>
<path d="M1584 324 c-39 -19 -54 -51 -54 -115 0 -56 26 -93 74 -105 29 -7 83
1 106 16 13 8 13 11 -1 25 -12 12 -22 14 -41 6 -30 -11 -71 6 -76 32 -3 15 6
17 67 17 l71 0 0 31 c0 57 -47 109 -98 109 -9 0 -31 -7 -48 -16z m80 -50 c11
-29 6 -34 -34 -34 -22 0 -40 4 -40 9 0 26 15 41 40 41 16 0 30 -7 34 -16z"/>
<path d="M1860 320 c-17 -17 -20 -17 -28 -4 -5 9 -19 14 -33 12 -23 -3 -24 -7
-27 -88 -4 -114 1 -130 38 -130 30 0 30 0 30 61 0 71 10 94 45 103 20 5 25 13
25 36 0 36 -20 40 -50 10z"/>
<path d="M2110 328 c-34 -18 -50 -54 -50 -111 0 -89 46 -134 112 -109 l28 10
0 -44 c0 -39 3 -46 26 -55 15 -5 30 -7 33 -3 3 3 7 75 9 160 l3 155 -43 -1
c-24 -1 -54 1 -68 4 -14 4 -36 1 -50 -6z m85 -108 c0 -61 -1 -65 -24 -68 -44
-7 -65 51 -41 113 8 21 16 26 38 23 26 -3 27 -5 27 -68z"/>
<path d="M2611 326 c-34 -19 -50 -54 -51 -112 0 -81 53 -125 134 -110 43 8 62
29 42 45 -9 7 -22 8 -37 3 -28 -11 -49 -6 -66 16 -22 28 -15 32 57 32 l70 0 0
29 c0 86 -78 137 -149 97z m73 -42 c28 -28 20 -44 -24 -44 -43 0 -50 12 -23
42 20 22 27 22 47 2z"/>
<path d="M924 305 c-4 -15 -4 -61 -2 -102 6 -88 22 -109 73 -98 17 4 49 6 73
6 l42 -1 0 110 0 110 -30 0 -30 0 0 -74 c0 -90 -5 -106 -36 -106 -22 0 -23 3
-26 88 -3 86 -3 87 -30 90 -22 3 -29 -2 -34 -23z"/>
<path d="M1950 220 l0 -110 30 0 30 0 0 110 0 110 -30 0 -30 0 0 -110z"/>
<path d="M2320 251 c0 -43 5 -92 11 -110 13 -36 47 -49 84 -33 13 6 40 8 59 5
l36 -6 0 112 0 111 -30 0 -30 0 0 -78 c0 -81 -9 -102 -42 -102 -16 0 -18 10
-18 90 l0 90 -35 0 -35 0 0 -79z"/>
</g>
</svg>
