<?xml version="1.0" encoding="UTF-8" standalone="no"?>
<!-- Created with Inkscape (http://www.inkscape.org/) -->

<svg
   width="13.000001mm"
   height="10.009496mm"
   viewBox="0 0 13.000001 15.009496"
   version="1.1"
   id="svg5866"
   inkscape:version="1.1.1 (3bf5ae0d25, 2021-09-20)"
   sodipodi:docname="Logo Cergy (2022).svg"
   xmlns:inkscape="http://www.inkscape.org/namespaces/inkscape"
   xmlns:sodipodi="http://sodipodi.sourceforge.net/DTD/sodipodi-0.dtd"
   xmlns="http://www.w3.org/2000/svg"
   xmlns:svg="http://www.w3.org/2000/svg">
  <sodipodi:namedview
     id="namedview5868"
     pagecolor="#ffffff"
     bordercolor="#111111"
     borderopacity="1"
     inkscape:pageshadow="0"
     inkscape:pageopacity="0"
     inkscape:pagecheckerboard="1"
     inkscape:document-units="mm"
     showgrid="false"
     fit-margin-top="0"
     fit-margin-left="0"
     fit-margin-right="0"
     fit-margin-bottom="0"
     inkscape:zoom="8"
     inkscape:cx="12.125"
     inkscape:cy="25.5625"
     inkscape:window-width="1920"
     inkscape:window-height="1013"
     inkscape:window-x="-9"
     inkscape:window-y="-9"
     inkscape:window-maximized="1"
     inkscape:current-layer="layer1" />
  <defs
     id="defs5863">
    <radialGradient
       fx="0"
       fy="0"
       cx="0"
       cy="0"
       r="1"
       gradientUnits="userSpaceOnUse"
       gradientTransform="matrix(0.0086699,0,0,-0.0130136,106.04524,119.17649)"
       spreadMethod="pad"
       id="radialGradient1232">
      <stop
         style="stop-opacity:1;stop-color:#ffcd4e"
         offset="0"
         id="stop1228" />
      <stop
         style="stop-opacity:1;stop-color:#feac15"
         offset="1"
         id="stop1230" />
    </radialGradient>
  </defs>
  <g
     inkscape:label="Calque 1"
     inkscape:groupmode="layer"
     id="layer1"
     transform="translate(-107.39809,-147.84355)">
    <g
       id="g7562">
      <g
         id="g7531"
         transform="translate(0,-5.2916667)">
        <path
           d="m 109.73101,166.14194 c 0,0.37253 -0.30762,0.6096 -0.70132,0.70556 v 0.006 c -0.28893,0.0677 -0.6089,0.0677 -0.89782,0 -0.38135,-0.096 -0.70132,-0.33302 -0.70132,-0.72249 v -1.29258 c 0,-0.38417 0.32596,-0.61524 0.70132,-0.71155 0.14146,-0.0339 0.29527,-0.0561 0.44908,-0.0561 0.14747,0 0.30128,0.0222 0.44874,0.0561 0.3937,0.1016 0.70132,0.33302 0.70132,0.71155 h -0.30762 c 0,-0.22613 -0.2092,-0.37288 -0.47978,-0.44026 -0.11042,-0.0286 -0.23989,-0.0452 -0.36266,-0.0452 -0.12911,0 -0.25223,0.0166 -0.369,0.0452 -0.2279,0.0561 -0.47378,0.19156 -0.47378,0.44591 v 1.28693 c 0,0.254 0.23989,0.38947 0.47378,0.45156 0.22754,0.0564 0.50412,0.0564 0.73166,0 h 0.006 c 0.26423,-0.0677 0.47343,-0.21449 0.47343,-0.44027 z"
           style="fill:none;stroke:#d91920;stroke-width:0.0649111;stroke-linecap:butt;stroke-linejoin:miter;stroke-miterlimit:4;stroke-dasharray:none;stroke-opacity:1"
           id="path1300" />
        <path
           d="m 110.62287,166.10243 c 0,0.0903 0.0183,0.16369 0.0737,0.23707 0.10477,0.12982 0.29527,0.22013 0.51047,0.254 0.16615,0.0282 0.31996,0.0282 0.48612,0 0.22755,-0.0282 0.43639,-0.11289 0.57186,-0.28787 l 0.26458,0.14676 c -0.17851,0.26528 -0.47978,0.37853 -0.7934,0.42333 -0.1845,0.0282 -0.35066,0.0339 -0.53516,0.006 -0.31362,-0.0455 -0.59655,-0.17498 -0.75671,-0.37289 -0.0981,-0.12982 -0.13511,-0.27093 -0.13511,-0.42898 v -1.25306 c 0,-0.37289 0.30762,-0.60396 0.70732,-0.70591 0.28892,-0.0734 0.60254,-0.0734 0.89182,0 0.79939,0.22013 0.93486,1.19697 0.1905,1.55822 -0.43039,0.21449 -1.06398,0.13546 -1.47602,0.13546 z m 0,-0.53622 c 0.26458,-0.0113 0.91651,0.0508 1.32856,-0.12982 0.52281,-0.22578 0.42439,-0.90312 -0.12312,-1.04458 -0.23354,-0.0561 -0.49812,-0.0561 -0.73202,0 -0.26423,0.0677 -0.47342,0.21484 -0.47342,0.43498 z"
           style="fill:none;stroke:#d91920;stroke-width:0.0649111;stroke-linecap:butt;stroke-linejoin:miter;stroke-miterlimit:4;stroke-dasharray:none;stroke-opacity:1"
           id="path1306" />
        <path
           d="m 113.16311,166.87018 v -1.25906 -0.72214 -0.79057 h 0.30128 v 0.3048 c 0.26458,-0.34432 0.84878,-0.4064 1.27952,-0.3048 l -0.0494,0.26528 c -0.40569,-0.12417 -1.21779,0.0677 -1.21779,0.51929 v 1.9872 z"
           style="fill:none;stroke:#d91920;stroke-width:0.0649111;stroke-linecap:butt;stroke-linejoin:miter;stroke-miterlimit:4;stroke-dasharray:none;stroke-opacity:1"
           id="path1312" />
        <path
           d="m 117.27174,164.03628 0.23354,0.18627 -0.2152,0.20884 c 0.0861,0.10725 0.13547,0.23707 0.13547,0.38947 v 0.80751 c 0,0.34995 -0.26458,0.57573 -0.62124,0.68862 -0.12312,0.0339 -0.25224,0.0621 -0.3877,0.0677 -0.12912,0.0113 -0.26423,0.006 -0.39335,-0.0113 h -0.006 c -0.0554,-0.006 -0.11077,-0.0169 -0.15981,-0.0282 -0.25823,0 -0.33232,0.25964 -0.0494,0.3048 0.59055,0.0903 1.59315,-0.17498 1.59315,0.67769 v 0.10124 c 0,0.34996 -0.22755,0.53658 -0.57821,0.62654 -0.15381,0.0455 -0.33196,0.0568 -0.49812,0.0568 -0.17215,0 -0.34431,-0.0113 -0.51047,-0.0508 -0.36301,-0.0734 -0.63359,-0.25435 -0.65828,-0.60995 -0.006,-0.0903 -0.006,-0.18627 0.0247,-0.27093 h 0.30762 c -0.0247,0.079 -0.0307,0.17498 -0.0187,0.254 0.0187,0.19755 0.19085,0.29351 0.40605,0.3556 0.28293,0.079 0.64593,0.0624 0.86113,-0.005 0.23389,-0.0737 0.35066,-0.15276 0.35066,-0.35596 v -0.10124 c 0,-0.55916 -0.87348,-0.33902 -1.35925,-0.4124 -0.45544,-0.0677 -0.55986,-0.4572 -0.29528,-0.6604 0.0183,-0.0169 0.043,-0.0339 0.0677,-0.0452 -0.22789,-0.12417 -0.37535,-0.32173 -0.37535,-0.58137 v -0.80751 c 0,-0.37254 0.30762,-0.6096 0.70132,-0.70556 0.14746,-0.0395 0.30127,-0.0564 0.44873,-0.0564 0.15381,0 0.30762,0.0169 0.44909,0.0564 0.12312,0.0282 0.23389,0.0734 0.33232,0.12982 z m -0.15381,1.59209 v -0.80751 c 0,-0.22014 -0.2092,-0.36689 -0.47378,-0.43462 -0.11677,-0.0282 -0.23954,-0.0395 -0.36901,-0.0395 -0.12911,0 -0.25188,0.0113 -0.36265,0.0395 -0.27058,0.0677 -0.47378,0.21448 -0.47378,0.43462 v 0.80751 c 0,0.26528 0.28927,0.41768 0.62759,0.46284 0.10442,0.0169 0.21519,0.0169 0.32596,0.0113 0.11042,-0.0113 0.2152,-0.0282 0.31362,-0.0565 0.2339,-0.0734 0.41205,-0.21448 0.41205,-0.41768 z"
           style="fill:none;stroke:#d91920;stroke-width:0.0649111;stroke-linecap:butt;stroke-linejoin:miter;stroke-miterlimit:4;stroke-dasharray:none;stroke-opacity:1"
           id="path1318" />
        <path
           d="m 120.36557,167.30491 c 0,0.38947 -0.31997,0.62653 -0.69533,0.71684 -0.14711,0.0395 -0.30127,0.0564 -0.44873,0.0564 -0.38735,0 -0.87348,-0.11853 -1.07033,-0.4572 l 0.26458,-0.12982 c 0.17216,0.23142 0.51682,0.3048 0.80575,0.3048 0.12312,0 0.25223,-0.0113 0.36301,-0.0395 0.23989,-0.0621 0.46743,-0.20885 0.47342,-0.45156 v -0.0508 -0.0452 -0.55315 c -0.41804,0.3556 -1.1564,0.33302 -1.59914,0.0903 -0.23989,-0.12982 -0.3937,-0.33902 -0.3937,-0.60431 v -2.038 h 0.31362 v 2.03271 c 0,0.16933 0.0861,0.28222 0.23989,0.36689 0.16616,0.0903 0.38135,0.12982 0.5969,0.13547 l 0.0184,-0.006 c 0.30762,0 0.60254,-0.0847 0.74401,-0.25964 0.0617,-0.0734 0.0801,-0.15805 0.0801,-0.25436 v -2.01542 h 0.30762 v 3.15031 z"
           style="fill:none;stroke:#d91920;stroke-width:0.0649111;stroke-linecap:butt;stroke-linejoin:miter;stroke-miterlimit:4;stroke-dasharray:none;stroke-opacity:1"
           id="path1324" />
      </g>
      <g
         id="g6085"
         style="fill:#d91920">
        <g
           id="g1220"
           transform="matrix(0.35277777,0,0,-0.35277777,77.106437,195.26854)"
           style="fill:#d91920">
          <g
             id="g1226"
             style="fill:#d91920">
            <path
               d="m 106.041,119.17 c 0.006,0.006 0.007,0.009 0.004,0.01 v 0 c -0.001,-0.004 -0.003,-0.006 -0.004,-0.01"
               style="fill:#d91920;stroke:none"
               id="path1234" />
          </g>
        </g>
        <path
           d="m 111.70974,151.97985 -0.11148,0.0646 c 0.0346,0.0215 -0.10125,0.39335 -0.1023,0.43991 0.0406,0.0692 0.0536,-0.0236 0.1083,-0.12841 0.007,-0.0212 0.0141,-0.0416 0.0215,-0.0628 -0.0116,-0.0367 0.008,-0.18627 0.084,-0.31327"
           style="fill:#d91920;fill-opacity:1;fill-rule:nonzero;stroke:none;stroke-width:0.352778"
           id="path1246" />
        <path
           d="m 111.97898,154.82909 c 0.0797,0.0279 -0.0448,-0.0765 -0.0497,-0.15275 -0.0868,-0.11148 -0.14429,-0.15487 -0.21273,-0.28046 -0.0501,0.11642 0.15381,0.26846 0.26247,0.43321"
           style="fill:#d91920;fill-opacity:1;fill-rule:nonzero;stroke:none;stroke-width:0.352778"
           id="path1250" />
        <path
           d="m 115.58631,148.03452 c -0.55139,-0.16298 -0.35878,-0.002 -0.34855,0.0497 0.1263,-0.0695 0.72567,0.19262 0.67769,0.0286 -0.29457,-0.11466 -0.59549,-0.19791 -0.89958,-0.25118 0.2413,0.19508 0.115,-0.0236 0.57044,0.17286"
           style="fill:#d91920;fill-opacity:1;fill-rule:nonzero;stroke:none;stroke-width:0.352778"
           id="path1254" />
        <path
           d="m 114.53775,156.20316 c 0.0914,0.0152 0.19861,0.0296 0.31115,0.0434 -0.0134,-0.018 -0.0452,-0.037 -0.11854,-0.0596 -0.0656,-0.0138 -0.127,0.004 -0.19261,0.0162"
           style="fill:#d91920;fill-opacity:1;fill-rule:nonzero;stroke:none;stroke-width:0.352778"
           id="path1258" />
        <path
           d="m 110.20116,149.96305 0.0624,-0.16087 c -0.001,0.002 -0.002,0.004 -0.004,0.005 -0.0811,0.1524 -0.14852,0.30973 -0.20391,0.47201 0.16933,-0.24342 0.33584,-0.54328 0.31609,-0.62159 -7.1e-4,0.001 -0.001,0.002 -0.002,0.004 z"
           style="fill:#d91920;fill-opacity:1;fill-rule:nonzero;stroke:none;stroke-width:0.352778"
           id="path1262" />
        <path
           d="m 114.3132,156.17042 c 0.0826,0.0547 0.15734,0.0459 0.22437,0.0328 -0.0815,-0.013 -0.15311,-0.0289 -0.18556,-0.0515 z"
           style="fill:#d91920;fill-opacity:1;fill-rule:nonzero;stroke:none;stroke-width:0.352778"
           id="path1266" />
        <path
           d="m 117.74584,155.78829 c 0.007,0.009 0.006,0.024 -0.005,0.0413 -0.0113,0.0127 -0.0229,0.0251 -0.0342,0.0378 -0.0194,0.0152 -0.0448,0.031 -0.0801,0.0466 -0.0624,0.0392 -0.0268,0.007 -0.0134,-0.0212 l -0.0832,0.10301 -0.06,-0.009 c -0.0462,0.11113 -0.25259,0.3048 -0.41981,0.44979 0.0416,-0.0402 0.0448,-0.0635 0.0504,-0.0885 -0.13017,0.14322 -0.3489,0.28857 -0.57926,0.44802 l 0.30445,-0.18097 c -0.21096,0.13899 -0.4318,0.26035 -0.6597,0.36371 0.0293,-0.0624 0.11889,-0.0794 -0.0808,-0.0388 -0.45684,0.16051 -0.37006,0.16474 -0.56374,0.27693 -0.18273,0.0533 -0.36794,0.0963 -0.55527,0.1277 0.1584,-0.0377 0.32279,-0.0776 0.45755,-0.121 -0.0469,-0.008 -0.0526,-0.0325 -0.0162,-0.0737 -0.4265,0.15769 -0.90663,0.2473 -1.39029,0.25717 -0.46673,-0.0148 -0.93381,-0.0981 -1.38783,-0.25258 0.1912,0.0166 -0.33408,-0.0935 -0.20532,-0.14605 -0.0875,0.0293 -0.34713,-0.13053 -0.5842,-0.24272 -0.0568,-0.10301 0.49036,0.18486 0.32491,0.0441 -0.38947,-0.16157 -0.94192,-0.387 -1.36066,-0.77964 -0.0399,-0.0392 -0.0787,-0.0794 -0.11677,-0.11959 -0.0183,-0.0201 -0.037,-0.0395 -0.0543,-0.0603 0.0526,0.0123 0.1584,0.11959 0.18485,0.12629 -0.0956,-0.0836 -0.20496,-0.17427 -0.31362,-0.26917 -0.15169,-0.17886 -0.28892,-0.3683 -0.41133,-0.5648 0.11112,0.11713 0.23248,0.23742 0.35665,0.34114 -0.0328,-0.042 -0.10054,-0.11077 -0.15063,-0.21131 l 0.11677,0.0508 c -0.26388,-0.28152 -0.25894,-0.23037 -0.4438,-0.3863 -0.0187,-0.0335 -0.036,-0.0681 -0.0536,-0.10195 l -0.15628,-0.31291 c -0.16545,-0.44239 -0.20108,-0.8001 -0.33055,-1.13736 -0.0409,-0.24871 -0.0388,-0.40746 -0.0444,-0.56938 0,-0.007 0.004,-0.0342 0.0106,-0.0194 0.0737,0.29069 0.11218,0.43391 0.30127,0.95461 -0.007,0.0131 -0.002,0.0113 -0.0106,0.005 -0.004,-0.005 -0.0346,-0.042 -0.0388,-0.0448 -0.0564,-0.0706 -0.11571,-0.32738 -0.0889,-0.19473 0.0561,0.22683 0.13264,0.64911 0.26564,0.8061 -0.0787,-0.18909 -0.14817,-0.38136 -0.19755,-0.58103 0.0138,-0.003 0.0247,-3.5e-4 0.0339,0.006 0.004,0.005 0.008,0.009 0.012,0.0113 0.0459,0.0589 -0.0109,0.0402 0.0621,0.10971 0.0265,-0.17815 -0.11289,-0.27375 -0.0988,-0.53022 l 0.0113,0.0402 c -0.139,-0.48507 -0.1203,-0.53728 -0.11078,-0.89111 -0.0847,-0.0293 -0.073,0.16368 -0.0833,0.39758 -0.049,-0.42792 -0.0441,-0.98214 0.0667,-1.4986 0.0624,-0.23989 0.14394,-0.47661 0.24519,-0.70873 0.0702,-0.13582 0.1524,-0.26177 0.24941,-0.37007 -0.0621,0.14746 -0.097,0.30551 -0.13688,0.45826 0.11607,-0.26917 0.32173,-0.74577 0.40005,-0.66252 -0.1718,0.23495 -0.0928,0.19862 -0.11359,0.28752 -0.006,0.0162 -0.0127,0.0332 -0.018,0.0494 l -0.0173,0.0113 c -0.0187,0.0381 -0.0621,0.15381 -0.0116,0.0903 0.007,-0.0321 0.0169,-0.0663 0.0289,-0.1016 l 10e-4,-0.001 c 0.008,-0.0198 0.0138,-0.0353 0.0166,-0.0483 0.084,-0.22825 0.14922,-0.58738 0.26952,-0.78634 -0.0575,0.11042 0.13688,-0.0663 0.17321,-0.0773 0.16546,-0.21696 -0.0342,-0.0367 -0.0744,-0.0448 0.0896,-0.1143 0.20567,-0.33725 0.34361,-0.37182 0.18909,-0.1009 -0.15699,0.20637 -0.15593,0.29633 0.1651,-0.21519 0.37924,-0.39229 0.58667,-0.57503 l -0.008,0.0254 c 0.0395,-0.0522 0.12947,-0.14852 0.20955,-0.17709 0.091,-0.0116 -0.0628,0.0967 -0.16545,0.16898 0.37147,-0.20602 0.60713,-0.64276 0.99695,-0.6798 l 0.21272,-0.11854 c 0.0236,0.002 0.0667,0.007 0.0303,0.0265 0.0681,-0.0413 0.13688,-0.0804 0.20955,-0.11042 0.4191,-0.1531 0.13688,0.0515 0.28328,0.0335 l -0.0208,0.005 c 0.13088,-0.0258 0.23707,0.006 0.14993,0.0275 0.14464,-0.0392 0.28893,-0.0917 0.43815,-0.12241 l 0.12912,-0.0138 c 0.16757,-0.10478 0.74225,0.0691 0.74683,-0.0529 0.12524,0.0258 0.22296,0.0624 0.16475,0.0751 0.34643,0.0434 -0.0896,0.0709 0.45755,0.16193 -0.007,0.024 -0.0656,0.005 -0.14993,-0.004 0.1397,0.0339 0.20003,0.0381 0.22684,0.0296 -0.004,0.0141 0.004,0.0325 0.0289,0.0593 0.0166,-0.0543 0.23777,-0.0247 0.35101,0.0275 l -0.10372,0.0568 c 0.12877,0.003 0.12277,-0.009 0.33056,0.0804 -0.0508,-0.006 -0.10513,0 -0.15699,10e-4 0.3496,0.11218 0.0699,-0.1009 0.46496,0.12029 -0.11853,-0.0691 -0.23601,-0.1464 -0.35913,-0.21202 0.45085,0.17463 0.33514,0.0452 0.55422,0.0956 0.4385,0.14499 0.80821,0.53093 1.15323,0.74471 0.06,0.0529 0.11783,0.10725 0.17427,0.16298 -0.008,0.0208 -0.0116,0.0441 0.0272,0.12453 -0.24095,-0.21978 -0.36689,-0.3242 -0.53411,-0.35948 -0.54892,-0.29492 -0.024,-0.26634 -0.68721,-0.52034 -0.003,0.0815 0.18239,0.17815 0.3616,0.26458 -0.0205,0.0593 -0.084,0.0356 -0.22895,-0.005 0.36124,0.15945 0.85548,0.50729 1.02129,0.66463 0.10936,0.0508 0.18768,0.14923 0.25329,0.26917 0.0406,-0.0575 0.32597,0.4893 0.31256,0.28363 0.21696,0.37712 0.10266,0.32738 0.23531,0.62619 -0.10513,-0.12947 0.0155,0.25858 -0.0833,0.10477 0.0501,-0.12982 -0.27235,-0.57609 -0.27729,-0.58067 0.0773,0.17709 0.0737,0.2607 0.0981,0.44132 -0.0183,-0.13158 0.09,0.0363 0.10866,0.11571 l -0.0519,0.0836 c 0.21378,0.0974 0.008,0.80116 -0.19015,1.06751 0.0998,-0.13124 0.25577,-0.2353 0.19932,-0.34043 0.13476,-0.27693 0.0529,0.0818 0.15028,-0.0434 -0.0508,0.56867 -0.71578,0.9465 -1.29187,1.05903 0.10689,-0.0487 0.36654,-0.10406 0.36689,-0.18626 -0.35736,0.0917 -0.71614,0.10513 -1.18957,-0.0727 -0.0268,-0.0152 -0.0543,-0.0289 -0.0804,-0.0455 -0.003,-0.002 -0.005,-0.004 -0.008,-0.006 l 0.10477,-0.0261 c -0.39194,-0.17744 -0.30057,-0.16686 -0.63218,-0.48013 0.004,0.0226 0.0173,0.0935 -0.0459,0.005 -0.21696,-0.31821 0.0293,-0.0674 -0.0875,-0.29281 -0.29986,-0.33796 -0.29951,-0.15452 -0.77646,-0.49495 l 0.0938,-0.009 c -0.42087,-0.30903 -0.99942,-0.37923 -1.49331,-0.33972 0.0494,0.002 0.37042,-0.006 0.31221,0.091 -0.23742,-7.1e-4 -0.58808,-3.6e-4 -0.80681,0.0896 -0.0515,-0.0148 -0.34043,0.0991 -0.17885,-0.0166 0.0903,-0.0402 0.18909,-0.0557 0.25788,-0.072 l -0.10301,-0.01 c -0.62266,0.28963 0.0138,0.14393 0.0226,0.23812 -0.33373,0.0698 -0.393,0.18627 -0.56904,0.30339 -0.1464,-0.009 0.33338,-0.26811 0.0836,-0.18979 -0.21942,0.0691 -0.65969,0.60642 -0.65687,0.85689 -0.37147,0.20214 -0.24306,1.24178 -0.33761,1.24143 0.0123,-0.0208 0.0536,0.10089 0.037,0.26211 l -0.0363,-0.0945 c -0.037,0.50059 0.17851,0.38135 0.21061,0.67133 -0.024,0.004 -0.0607,-0.0833 -0.0984,-0.12488 0.13864,0.65405 0.33973,0.80927 0.68227,1.32397 -0.0272,-0.007 -0.054,-0.0145 -0.0967,-0.0681 -0.0293,-0.01 0.0501,0.0773 0.21802,0.20602 l -0.11571,-0.19861 c 0.31362,0.13476 0.54892,0.65122 1.05833,0.83467 -0.0614,0.0169 -0.39969,-0.17004 -0.24165,-0.0349 0.31186,0.14746 0.45261,-0.008 0.8001,0.19262 -0.17674,-0.042 -0.15522,0.06 -0.32385,0.005 0.24306,0.10548 0.41134,0.12877 0.52387,0.09 0.0684,0.0215 0.0949,0.0515 0.0931,0.0706 0.17957,0.001 0.38559,0.0804 0.62407,0.0628 l -0.0109,0.0487 c 0.37394,-0.15134 0.49001,0.008 0.93168,-0.0653 l 0.0123,0.0571 c 0.21732,-0.0515 0.40499,-0.16545 0.69956,-0.20144 -0.0469,0.036 -0.0945,0.0741 -0.14534,0.10372 0.24236,-0.10477 0.74154,-0.23918 0.89111,-0.43251 l 0.28999,-0.1083 -0.067,-0.0155 c 0.17039,-0.0878 0.82268,-0.67769 0.82268,-0.67769 l -0.11995,0.0349 c 0.10442,-0.11924 0.20214,-0.24659 0.29351,-0.38065 0.0219,-0.031 0.0875,-0.11218 0.1584,-0.079 0.0829,0.0388 0.0624,0.12065 0.0395,0.17286 -0.004,0.008 -0.008,0.0166 -0.0131,0.025 -0.0148,-0.0152 -0.0293,-0.0293 -0.043,-0.043 -0.003,-0.004 -0.006,-0.007 -0.009,-0.0102 -0.006,-0.018 0.006,-0.002 -0.0176,-0.0349 0.006,0.005 -0.008,-0.009 -0.004,-0.006 -0.0356,-0.006 -0.0293,-0.009 0.0198,0.0402 10e-4,0.001 0.002,0.003 0.003,0.004 0.0109,0.0413 0.0134,0.0953 -0.0409,0.16862 -0.0145,0.008 -0.012,0.001 0.002,-0.0226 l -0.133,0.18097 -0.12029,0.17463 0.0646,-0.049 c 0,0 -0.0233,0.11007 -0.0801,0.16969 -0.0572,0.0593 -0.14006,0.2293 -0.36901,0.45261"
           style="fill:#d91920;fill-opacity:1;fill-rule:nonzero;stroke:none;stroke-width:0.352778"
           id="path1270" />
        <path
           d="m 117.54285,155.99749 0.0296,0.004 c -0.1203,0.0653 -0.40922,0.32597 -0.44415,0.39406 0.001,3.5e-4 0.002,3.5e-4 0.003,7e-4 0.18027,-0.1404 0.35172,-0.29386 0.51294,-0.46214 -0.0268,0.0187 -0.0603,0.0399 -0.1016,0.0632"
           style="fill:#d91920;fill-opacity:1;fill-rule:nonzero;stroke:none;stroke-width:0.352778"
           id="path1274" />
        <path
           d="m 111.8306,151.62276 c 0.13758,-0.21308 0.3048,-0.42827 0.38312,-0.44238 -0.024,-0.0688 -0.39653,0.29174 -0.38312,0.44238"
           style="fill:#d91920;fill-opacity:1;fill-rule:nonzero;stroke:none;stroke-width:0.352778"
           id="path1278" />
        <path
           d="m 117.43144,152.2978 c -0.073,0.0409 -0.15169,0.0607 -0.23283,0.078 l 0.0198,0.008 c 0.0825,-0.0141 0.16051,-0.0423 0.23495,-0.0818 z"
           style="fill:#d91920;fill-opacity:1;fill-rule:nonzero;stroke:none;stroke-width:0.352778"
           id="path1282" />
        <path
           d="m 118.37322,151.17103 c 0.0229,-0.1076 3.5e-4,-0.22296 7e-4,-0.29986 l -0.0571,0.12418 c 0.0166,0.0413 0.0469,0.13335 0.0564,0.17568"
           style="fill:#d91920;fill-opacity:1;fill-rule:nonzero;stroke:none;stroke-width:0.352778"
           id="path1286" />
        <path
           d="m 114.51683,153.22448 c -3.5e-4,0.001 -0.001,0.002 -0.002,0.004 0.002,-0.002 0.002,-0.004 0.002,-0.004 z"
           style="fill:#d91920;stroke:#0f0200;stroke-width:0.003175;stroke-linecap:butt;stroke-linejoin:miter;stroke-miterlimit:4;stroke-dasharray:none;stroke-opacity:1"
           id="path1290" />
        <path
           d="m 114.67032,153.18384 -0.002,-0.0409 c 0.009,-0.12136 0.0317,0.0243 0.0543,-0.2854 0.007,0.0131 0.0141,0.0258 0.009,0.0607 0.005,0.0106 0.013,-0.0554 0.009,-0.11536 -0.002,-0.0145 -0.006,-0.0289 -0.009,-0.0427 10e-4,-0.006 -0.01,-0.0155 -0.008,-0.0212 -3.5e-4,-0.005 0.001,-0.0455 3.6e-4,-0.0515 l -0.0684,0.1203 c -0.0152,-0.13194 0.0642,-0.17251 0.0413,-0.31574 -7.1e-4,-0.002 -0.0931,-0.12171 -0.0935,-0.12417 0.0134,-0.0293 0.0469,-0.0483 0.0233,-0.11113 -0.0413,-0.0621 -0.11113,-0.1591 -0.12912,-0.16122 -0.15769,-0.0451 -0.12594,-0.14499 -0.27023,-0.23989 -0.10583,-0.0476 -0.13405,-0.055 -0.21978,-0.10336 -0.0265,-0.0124 -0.0808,-0.002 -0.0931,-0.008 -0.1083,-0.048 0.0152,0.0134 -0.0363,0.072 -0.008,0.0155 -0.17039,-0.11535 -0.23001,-0.14675 -0.0384,-0.001 -0.0885,0.004 -0.12665,0.006 -0.0692,0.0169 -0.0981,-0.0173 -0.17109,0.0131 -0.0173,0.01 -0.0801,0.0416 -0.0818,0.0487 0.0575,0.0427 -0.15523,0.0526 -0.15981,0.0522 -0.14429,0.0762 -0.14041,0.25188 -0.23178,0.33655 l 0.0222,-0.19403 c -0.0303,0.0261 -0.0875,0.0557 -0.11571,0.0854 -0.0395,0.054 -0.0681,0.0833 -0.0561,0.10654 -0.049,0.0452 -0.091,0.127 -0.10336,0.2219 0.009,0.008 -0.0444,3.5e-4 -0.0624,0.0452 l 0.0378,0.0981 -0.0526,-0.0152 c 0.0123,0.0494 -0.061,0.20109 -0.002,0.3048 l -0.0533,0.0508 c -0.0395,0.23742 0.0483,0.25577 0.0483,0.25577 0.0152,0.0713 0.079,0.0663 0.11712,0.11641 -0.0162,-0.0155 -0.0956,-0.0127 -0.0995,-0.007 0.012,0.0709 0.0384,0.0642 0.0437,0.13264 l 0.0247,-0.019 c 0.003,0.10019 0.0325,0.0483 0.0762,0.14923 0.0374,0.0109 0.0885,0.0515 0.12735,0.0829 -10e-4,0.0197 -0.0956,0.0275 -0.0363,0.0649 0.009,-0.004 0.0187,0.0279 0.0166,0.0303 0.0995,0.0826 -0.0265,0.054 0.16299,0.13864 0.0173,0.01 0.0843,0.0124 0.10195,0.0208 0.008,-0.009 0.0571,-0.03 0.0938,-0.019 -0.006,0.0102 0.0554,0.12383 0.0444,0.12983 0.0138,0.006 0.0275,0.0113 0.0416,0.0162 0.0229,0 0.0208,-0.002 0.0515,0.0145 0.0769,0.0155 0.0148,-0.0395 0.0208,-0.049 0.03,0.018 0.14146,0.0871 0.14146,0.0871 0.0148,0.002 0.0296,0.005 0.0441,0.006 0.0205,-0.004 0.0409,-0.01 0.0815,-0.007 -0.03,0.004 -0.0579,0.005 -0.0769,0.008 0.0688,0.007 0.097,0.009 0.16545,0.004 0.004,-0.003 0.0942,-0.0826 0.0974,-0.0871 l -0.0466,0.0868 c 0.0296,-0.002 0.0388,-0.0388 0.0681,-0.0434 0.006,-0.005 0.0734,-0.06 0.0847,-0.0917 0.001,0.009 -0.0162,0.11112 -0.0173,0.11394 0.20426,-0.0332 0.33232,-0.13229 0.49672,-0.26811 0.091,-0.0931 0.0702,-0.0804 0.10018,-0.13088 0.006,0.004 0.0127,0.004 0.0261,-0.007 0.0716,-0.0857 0.10795,-0.15769 0.13512,-0.23177 l -0.005,-0.001 c 0.007,-0.012 0.0127,-0.0251 0.0187,-0.0381 0.008,-0.025 0.0159,-0.0804 0.03,-0.10301 m -0.12065,0.21696 c -0.0236,0.0578 -0.0691,0.10125 -0.10372,0.1531 0.009,0.001 0.0123,0.0198 0.018,0.0233 -0.01,-0.0127 -0.0494,0.0109 -0.079,0.0293 -0.0709,0.0727 -0.20002,0.10089 -0.25647,0.10654 0.26811,-0.16863 0.32209,-0.31821 0.4258,-0.50765 0.019,0.0265 -0.0557,0.23601 -0.0822,0.27622 0.0272,-0.0254 0.0582,-0.0487 0.0776,-0.0808"
           style="fill:#d91920;fill-opacity:1;fill-rule:nonzero;stroke:none;stroke-width:0.352778"
           id="path1294" />
      </g>
      <g
         id="g6591"
         style="fill:#d91920">
        <path
           d="m 109.73101,160.85027 c 0,0.37253 -0.30762,0.6096 -0.70132,0.70556 v 0.006 c -0.28893,0.0677 -0.6089,0.0677 -0.89782,0 -0.38135,-0.096 -0.70132,-0.33302 -0.70132,-0.72249 v -1.29258 c 0,-0.38417 0.32596,-0.61524 0.70132,-0.71155 0.14146,-0.0339 0.29527,-0.0561 0.44908,-0.0561 0.14747,0 0.30128,0.0222 0.44874,0.0561 0.3937,0.1016 0.70132,0.33302 0.70132,0.71155 h -0.30762 c 0,-0.22613 -0.2092,-0.37288 -0.47978,-0.44026 -0.11042,-0.0286 -0.23989,-0.0452 -0.36266,-0.0452 -0.12911,0 -0.25223,0.0166 -0.369,0.0452 -0.2279,0.0561 -0.47378,0.19156 -0.47378,0.44591 v 1.28693 c 0,0.254 0.23989,0.38947 0.47378,0.45156 0.22754,0.0564 0.50412,0.0564 0.73166,0 h 0.006 c 0.26423,-0.0677 0.47343,-0.21449 0.47343,-0.44027 z"
           style="fill:#d91920;fill-opacity:1;fill-rule:nonzero;stroke:none;stroke-width:0.352778"
           id="path1298" />
        <path
           d="m 110.62287,160.81076 c 0,0.0903 0.0183,0.16369 0.0737,0.23707 0.10477,0.12982 0.29527,0.22013 0.51047,0.254 0.16615,0.0282 0.31996,0.0282 0.48612,0 0.22755,-0.0282 0.43639,-0.11289 0.57186,-0.28787 l 0.26458,0.14676 c -0.17851,0.26528 -0.47978,0.37853 -0.7934,0.42333 -0.1845,0.0282 -0.35066,0.0339 -0.53516,0.006 -0.31362,-0.0455 -0.59655,-0.17498 -0.75671,-0.37289 -0.0981,-0.12982 -0.13511,-0.27093 -0.13511,-0.42898 v -1.25306 c 0,-0.37289 0.30762,-0.60396 0.70732,-0.70591 0.28892,-0.0734 0.60254,-0.0734 0.89182,0 0.79939,0.22013 0.93486,1.19697 0.1905,1.55822 -0.43039,0.21449 -1.06398,0.13546 -1.47602,0.13546 z m 0,-0.53622 c 0.26458,-0.0113 0.91651,0.0508 1.32856,-0.12982 0.52281,-0.22578 0.42439,-0.90312 -0.12312,-1.04458 -0.23354,-0.0561 -0.49812,-0.0561 -0.73202,0 -0.26423,0.0677 -0.47342,0.21484 -0.47342,0.43498 z"
           style="fill:#d91920;fill-opacity:1;fill-rule:nonzero;stroke:none;stroke-width:0.352778"
           id="path1304" />
        <path
           d="m 113.16311,161.57851 v -1.25906 -0.72214 -0.79057 h 0.30128 v 0.3048 c 0.26458,-0.34432 0.84878,-0.4064 1.27952,-0.3048 l -0.0494,0.26528 c -0.40569,-0.12417 -1.21779,0.0677 -1.21779,0.51929 v 1.9872 z"
           style="fill:#d91920;fill-opacity:1;fill-rule:nonzero;stroke:none;stroke-width:0.352778"
           id="path1310" />
        <path
           d="m 117.27174,158.74461 0.23354,0.18627 -0.2152,0.20884 c 0.0861,0.10725 0.13547,0.23707 0.13547,0.38947 v 0.80751 c 0,0.34995 -0.26458,0.57573 -0.62124,0.68862 -0.12312,0.0339 -0.25224,0.0621 -0.3877,0.0677 -0.12912,0.0113 -0.26423,0.006 -0.39335,-0.0113 h -0.006 c -0.0554,-0.006 -0.11077,-0.0169 -0.15981,-0.0282 -0.25823,0 -0.33232,0.25964 -0.0494,0.3048 0.59055,0.0903 1.59315,-0.17498 1.59315,0.67769 v 0.10124 c 0,0.34996 -0.22755,0.53658 -0.57821,0.62654 -0.15381,0.0455 -0.33196,0.0568 -0.49812,0.0568 -0.17215,0 -0.34431,-0.0113 -0.51047,-0.0508 -0.36301,-0.0734 -0.63359,-0.25435 -0.65828,-0.60995 -0.006,-0.0903 -0.006,-0.18627 0.0247,-0.27093 h 0.30762 c -0.0247,0.079 -0.0307,0.17498 -0.0187,0.254 0.0187,0.19755 0.19085,0.29351 0.40605,0.3556 0.28293,0.079 0.64593,0.0624 0.86113,-0.005 0.23389,-0.0737 0.35066,-0.15276 0.35066,-0.35596 v -0.10124 c 0,-0.55916 -0.87348,-0.33902 -1.35925,-0.4124 -0.45544,-0.0677 -0.55986,-0.4572 -0.29528,-0.6604 0.0183,-0.0169 0.043,-0.0339 0.0677,-0.0452 -0.22789,-0.12417 -0.37535,-0.32173 -0.37535,-0.58137 v -0.80751 c 0,-0.37254 0.30762,-0.6096 0.70132,-0.70556 0.14746,-0.0395 0.30127,-0.0564 0.44873,-0.0564 0.15381,0 0.30762,0.0169 0.44909,0.0564 0.12312,0.0282 0.23389,0.0734 0.33232,0.12982 z m -0.15381,1.59209 v -0.80751 c 0,-0.22014 -0.2092,-0.36689 -0.47378,-0.43462 -0.11677,-0.0282 -0.23954,-0.0395 -0.36901,-0.0395 -0.12911,0 -0.25188,0.0113 -0.36265,0.0395 -0.27058,0.0677 -0.47378,0.21448 -0.47378,0.43462 v 0.80751 c 0,0.26528 0.28927,0.41768 0.62759,0.46284 0.10442,0.0169 0.21519,0.0169 0.32596,0.0113 0.11042,-0.0113 0.2152,-0.0282 0.31362,-0.0565 0.2339,-0.0734 0.41205,-0.21448 0.41205,-0.41768"
           style="fill:#d91920;fill-opacity:1;fill-rule:nonzero;stroke:none;stroke-width:0.352778"
           id="path1316" />
        <path
           d="m 120.36557,162.01324 c 0,0.38947 -0.31997,0.62653 -0.69533,0.71684 -0.14711,0.0395 -0.30127,0.0564 -0.44873,0.0564 -0.38735,0 -0.87348,-0.11853 -1.07033,-0.4572 l 0.26458,-0.12982 c 0.17216,0.23142 0.51682,0.3048 0.80575,0.3048 0.12312,0 0.25223,-0.0113 0.36301,-0.0395 0.23989,-0.0621 0.46743,-0.20885 0.47342,-0.45156 v -0.0508 -0.0452 -0.55315 c -0.41804,0.3556 -1.1564,0.33302 -1.59914,0.0903 -0.23989,-0.12982 -0.3937,-0.33902 -0.3937,-0.60431 v -2.038 h 0.31362 v 2.03271 c 0,0.16933 0.0861,0.28222 0.23989,0.36689 0.16616,0.0903 0.38135,0.12982 0.5969,0.13547 l 0.0184,-0.006 c 0.30762,0 0.60254,-0.0847 0.74401,-0.25964 0.0617,-0.0734 0.0801,-0.15805 0.0801,-0.25436 v -2.01542 h 0.30762 v 3.15031 z"
           style="fill:#d91920;fill-opacity:1;fill-rule:nonzero;stroke:none;stroke-width:0.352778"
           id="path1322" />
      </g>
    </g>
  </g>
</svg>
