<svg id="Groupe_1327" data-name="Groupe 1327" xmlns="http://www.w3.org/2000/svg" xmlns:xlink="http://www.w3.org/1999/xlink" width="13.464" height="15.209" viewBox="0 0 72.464 95.209">
  <defs>
    <clipPath id="clip-path">
      <rect id="Rectangle_102" data-name="Rectangle 102" width="72.464" height="95.209" fill="none"/>
    </clipPath>
  </defs>
  <g id="Groupe_1326" data-name="Groupe 1326" clip-path="url(#clip-path)">
    <path id="Tracé_3557" data-name="Tracé 3557" d="M79.389,146.45l-5.335,13.256v2.113H82.58v-2.54H77.272l5.308-13.256V143.91h-8.2v2.54Zm-14.3-2.54h-3.08v13.508a4.413,4.413,0,0,0,1.348,3.3,5.192,5.192,0,0,0,3.658,1.308,5.124,5.124,0,0,0,3.631-1.308,4.413,4.413,0,0,0,1.348-3.3V143.91h-3.08v13.659a1.777,1.777,0,0,1-1.9,1.911,1.8,1.8,0,0,1-1.925-1.911ZM52.3,152.865c0-3.27.11-5.081.688-5.936a1.62,1.62,0,0,1,1.458-.679,1.673,1.673,0,0,1,1.485.679c.578.855.66,2.666.66,5.936s-.082,5.081-.66,5.935a1.671,1.671,0,0,1-1.485.68,1.619,1.619,0,0,1-1.458-.68c-.578-.855-.688-2.666-.688-5.935m-1.65-7.647c-1.457,1.509-1.431,4.126-1.431,7.647s-.027,6.137,1.431,7.647a5.527,5.527,0,0,0,7.591,0c1.457-1.51,1.43-4.125,1.43-7.647s.028-6.138-1.43-7.647a5.529,5.529,0,0,0-7.591,0m-.439-9.7v-5.207h4.429v-2.54H50.209v-5.081h5.144v-2.54H47.128v17.91h8.224v-2.54ZM41.93,146.45a1.832,1.832,0,0,1,1.567.73c.578.83.66,2.54.66,5.66s-.082,4.879-.66,5.71a1.832,1.832,0,0,1-1.567.729H40.114V146.45Zm.082-2.54H37.034v17.843h4.978a4.886,4.886,0,0,0,3.8-1.418c1.457-1.484,1.431-4.024,1.431-7.47s.027-5.986-1.431-7.471a4.905,4.905,0,0,0-3.8-1.484m45.9,15.369v-5.207h4.428v-2.541H87.915V146.45h5.143v-2.54H84.835v17.909h8.223v-2.54Z" transform="translate(-20.594 -66.811)" fill="#161615"/>
    <path id="Tracé_3558" data-name="Tracé 3558" d="M0,94.94H3.47V0H0ZM16.262,0V3.172H68.769V44.248H16.262V71.241h8.224V68.7H19.342V47.422h52.9V0Z" transform="translate(0 0.001)" fill="#161615"/>
  </g>
</svg>
